<?xml version="1.0" encoding="UTF-8" standalone="no"?>
<!DOCTYPE svg PUBLIC "-//W3C//DTD SVG 1.1//EN"
 "http://www.w3.org/Graphics/SVG/1.1/DTD/svg11.dtd">
<!-- Generated by graphviz version 2.50.0 (0)
 -->
<!-- Pages: 1 -->
<svg width="243pt" height="332pt"
 viewBox="0.00 0.00 242.74 332.00" xmlns="http://www.w3.org/2000/svg" xmlns:xlink="http://www.w3.org/1999/xlink">
<g id="graph0" class="graph" transform="scale(1 1) rotate(0) translate(4 328)">
<polygon fill="white" stroke="transparent" points="-4,4 -4,-328 238.74,-328 238.74,4 -4,4"/>
<!-- brahman&#45;s&#45;prakriti -->
<g id="node1" class="node">
<title>brahman&#45;s&#45;prakriti</title>
<ellipse fill="none" stroke="black" cx="77.34" cy="-306" rx="77.19" ry="18"/>
<text text-anchor="middle" x="77.34" y="-302.3" font-family="Times,serif" font-size="14.00">Brahman&#39;s Prakriti</text>
</g>
<!-- bhuddhi -->
<g id="node2" class="node">
<title>bhuddhi</title>
<ellipse fill="none" stroke="black" cx="77.34" cy="-234" rx="40.89" ry="18"/>
<text text-anchor="middle" x="77.34" y="-230.3" font-family="Times,serif" font-size="14.00">Bhuddhi</text>
</g>
<!-- brahman&#45;s&#45;prakriti&#45;&gt;bhuddhi -->
<g id="edge1" class="edge">
<title>brahman&#45;s&#45;prakriti&#45;&gt;bhuddhi</title>
<path fill="none" stroke="black" d="M77.34,-287.7C77.34,-279.98 77.34,-270.71 77.34,-262.11"/>
<polygon fill="black" stroke="black" points="80.84,-262.1 77.34,-252.1 73.84,-262.1 80.84,-262.1"/>
</g>
<!-- vishayasak&#45;jhana -->
<g id="node3" class="node">
<title>vishayasak&#45;jhana</title>
<ellipse fill="none" stroke="black" cx="131.34" cy="-162" rx="73.39" ry="18"/>
<text text-anchor="middle" x="131.34" y="-158.3" font-family="Times,serif" font-size="14.00">Vishayasak Jhana</text>
</g>
<!-- bhuddhi&#45;&gt;vishayasak&#45;jhana -->
<g id="edge2" class="edge">
<title>bhuddhi&#45;&gt;vishayasak&#45;jhana</title>
<path fill="none" stroke="black" d="M89.87,-216.76C96.42,-208.27 104.59,-197.68 111.94,-188.15"/>
<polygon fill="black" stroke="black" points="114.8,-190.18 118.13,-180.12 109.25,-185.9 114.8,-190.18"/>
</g>
<!-- sopna&#45;dreams -->
<g id="node5" class="node">
<title>sopna&#45;dreams</title>
<ellipse fill="none" stroke="black" cx="131.34" cy="-90" rx="66.89" ry="18"/>
<text text-anchor="middle" x="131.34" y="-86.3" font-family="Times,serif" font-size="14.00">Sopna (dreams)</text>
</g>
<!-- vishayasak&#45;jhana&#45;&gt;sopna&#45;dreams -->
<g id="edge4" class="edge">
<title>vishayasak&#45;jhana&#45;&gt;sopna&#45;dreams</title>
<path fill="none" stroke="black" d="M131.34,-143.7C131.34,-135.98 131.34,-126.71 131.34,-118.11"/>
<polygon fill="black" stroke="black" points="134.84,-118.1 131.34,-108.1 127.84,-118.1 134.84,-118.1"/>
</g>
<!-- asat&#45;jhana -->
<g id="node4" class="node">
<title>asat&#45;jhana</title>
<ellipse fill="none" stroke="black" cx="185.34" cy="-234" rx="49.29" ry="18"/>
<text text-anchor="middle" x="185.34" y="-230.3" font-family="Times,serif" font-size="14.00">Asat Jhana</text>
</g>
<!-- asat&#45;jhana&#45;&gt;vishayasak&#45;jhana -->
<g id="edge3" class="edge">
<title>asat&#45;jhana&#45;&gt;vishayasak&#45;jhana</title>
<path fill="none" stroke="black" d="M172.55,-216.41C165.98,-207.91 157.86,-197.37 150.56,-187.91"/>
<polygon fill="black" stroke="black" points="153.3,-185.74 144.42,-179.96 147.76,-190.01 153.3,-185.74"/>
</g>
<!-- grass&#45;body -->
<g id="node6" class="node">
<title>grass&#45;body</title>
<ellipse fill="none" stroke="black" cx="131.34" cy="-18" rx="50.89" ry="18"/>
<text text-anchor="middle" x="131.34" y="-14.3" font-family="Times,serif" font-size="14.00">Grass body</text>
</g>
<!-- sopna&#45;dreams&#45;&gt;grass&#45;body -->
<g id="edge5" class="edge">
<title>sopna&#45;dreams&#45;&gt;grass&#45;body</title>
<path fill="none" stroke="black" d="M131.34,-71.7C131.34,-63.98 131.34,-54.71 131.34,-46.11"/>
<polygon fill="black" stroke="black" points="134.84,-46.1 131.34,-36.1 127.84,-46.1 134.84,-46.1"/>
</g>
</g>
</svg>
