<?xml version="1.0" encoding="UTF-8" standalone="no"?>
<!DOCTYPE svg PUBLIC "-//W3C//DTD SVG 1.1//EN"
 "http://www.w3.org/Graphics/SVG/1.1/DTD/svg11.dtd">
<!-- Generated by graphviz version 2.50.0 (0)
 -->
<!-- Pages: 1 -->
<svg width="201pt" height="188pt"
 viewBox="0.00 0.00 201.39 188.00" xmlns="http://www.w3.org/2000/svg" xmlns:xlink="http://www.w3.org/1999/xlink">
<g id="graph0" class="graph" transform="scale(1 1) rotate(0) translate(4 184)">
<polygon fill="white" stroke="transparent" points="-4,4 -4,-184 197.39,-184 197.39,4 -4,4"/>
<!-- aquarment -->
<g id="node1" class="node">
<title>aquarment</title>
<ellipse fill="none" stroke="black" cx="50.7" cy="-90" rx="50.89" ry="18"/>
<text text-anchor="middle" x="50.7" y="-86.3" font-family="Times,serif" font-size="14.00">Aquarment</text>
</g>
<!-- gyanam -->
<g id="node2" class="node">
<title>gyanam</title>
<ellipse fill="none" stroke="black" cx="102.7" cy="-162" rx="40.89" ry="18"/>
<text text-anchor="middle" x="102.7" y="-158.3" font-family="Times,serif" font-size="14.00">Gyanam</text>
</g>
<!-- gyanam&#45;&gt;aquarment -->
<g id="edge1" class="edge">
<title>gyanam&#45;&gt;aquarment</title>
<path fill="none" stroke="black" d="M90.63,-144.76C84.23,-136.14 76.22,-125.36 69.06,-115.73"/>
<polygon fill="black" stroke="black" points="71.82,-113.57 63.05,-107.63 66.21,-117.75 71.82,-113.57"/>
</g>
<!-- self&#45;i -->
<g id="node3" class="node">
<title>self&#45;i</title>
<ellipse fill="none" stroke="black" cx="155.7" cy="-90" rx="36.29" ry="18"/>
<text text-anchor="middle" x="155.7" y="-86.3" font-family="Times,serif" font-size="14.00">Self (I)</text>
</g>
<!-- gyanam&#45;&gt;self&#45;i -->
<g id="edge2" class="edge">
<title>gyanam&#45;&gt;self&#45;i</title>
<path fill="none" stroke="black" d="M114.99,-144.76C121.61,-136.02 129.91,-125.05 137.29,-115.31"/>
<polygon fill="black" stroke="black" points="140.22,-117.23 143.47,-107.15 134.64,-113.01 140.22,-117.23"/>
</g>
<!-- objects -->
<g id="node4" class="node">
<title>objects</title>
<ellipse fill="none" stroke="black" cx="155.7" cy="-18" rx="37.89" ry="18"/>
<text text-anchor="middle" x="155.7" y="-14.3" font-family="Times,serif" font-size="14.00">Objects</text>
</g>
<!-- self&#45;i&#45;&gt;objects -->
<g id="edge3" class="edge">
<title>self&#45;i&#45;&gt;objects</title>
<path fill="none" stroke="black" d="M155.7,-71.7C155.7,-63.98 155.7,-54.71 155.7,-46.11"/>
<polygon fill="black" stroke="black" points="159.2,-46.1 155.7,-36.1 152.2,-46.1 159.2,-46.1"/>
</g>
</g>
</svg>
