<?xml version="1.0" encoding="UTF-8" standalone="no"?>
<!DOCTYPE svg PUBLIC "-//W3C//DTD SVG 1.1//EN"
 "http://www.w3.org/Graphics/SVG/1.1/DTD/svg11.dtd">
<!-- Generated by graphviz version 2.50.0 (0)
 -->
<!-- Pages: 1 -->
<svg width="258pt" height="116pt"
 viewBox="0.00 0.00 257.60 116.00" xmlns="http://www.w3.org/2000/svg" xmlns:xlink="http://www.w3.org/1999/xlink">
<g id="graph0" class="graph" transform="scale(1 1) rotate(0) translate(4 112)">
<polygon fill="white" stroke="transparent" points="-4,4 -4,-112 253.6,-112 253.6,4 -4,4"/>
<!-- brahma -->
<g id="node1" class="node">
<title>brahma</title>
<ellipse fill="none" stroke="black" cx="123" cy="-90" rx="38.99" ry="18"/>
<text text-anchor="middle" x="123" y="-86.3" font-family="Times,serif" font-size="14.00">Brahma</text>
</g>
<!-- jiva -->
<g id="node2" class="node">
<title>jiva</title>
<ellipse fill="none" stroke="black" cx="27" cy="-18" rx="27" ry="18"/>
<text text-anchor="middle" x="27" y="-14.3" font-family="Times,serif" font-size="14.00">Jiva</text>
</g>
<!-- brahma&#45;&gt;jiva -->
<g id="edge1" class="edge">
<title>brahma&#45;&gt;jiva</title>
<path fill="none" stroke="black" d="M103.11,-74.5C88.56,-63.89 68.69,-49.4 52.9,-37.88"/>
<polygon fill="black" stroke="black" points="54.75,-34.9 44.61,-31.84 50.62,-40.56 54.75,-34.9"/>
</g>
<!-- purtagatma -->
<g id="node3" class="node">
<title>purtagatma</title>
<ellipse fill="none" stroke="black" cx="123" cy="-18" rx="51.19" ry="18"/>
<text text-anchor="middle" x="123" y="-14.3" font-family="Times,serif" font-size="14.00">Purtagatma</text>
</g>
<!-- brahma&#45;&gt;purtagatma -->
<g id="edge2" class="edge">
<title>brahma&#45;&gt;purtagatma</title>
<path fill="none" stroke="black" d="M123,-71.7C123,-63.98 123,-54.71 123,-46.11"/>
<polygon fill="black" stroke="black" points="126.5,-46.1 123,-36.1 119.5,-46.1 126.5,-46.1"/>
</g>
<!-- jagat -->
<g id="node4" class="node">
<title>jagat</title>
<ellipse fill="none" stroke="black" cx="221" cy="-18" rx="28.7" ry="18"/>
<text text-anchor="middle" x="221" y="-14.3" font-family="Times,serif" font-size="14.00">Jagat</text>
</g>
<!-- brahma&#45;&gt;jagat -->
<g id="edge3" class="edge">
<title>brahma&#45;&gt;jagat</title>
<path fill="none" stroke="black" d="M143.31,-74.5C158.06,-63.95 178.19,-49.58 194.25,-38.1"/>
<polygon fill="black" stroke="black" points="196.6,-40.73 202.7,-32.07 192.53,-35.03 196.6,-40.73"/>
</g>
</g>
</svg>
